# xmcd
#
# Track frame offsets:
#	180
#	11157
#	25855
#	38812
#	48642
#	64857
#	74270
#	86397
#	109420
#	124255
#	135335
#	149727
#	163650
#	177350
#	195927
#	210677
#	220795
#	232917
#	248865
#	265135
#
# Disc length: 3662
#
# Revision: 1
# Processed by: cddbd v1.5.1PL0 Copyright (c) Steve Scherf et al.
# Submitted via: CDex 1.51
# Normalized: r0:DSETVAR1,TDELIM( - )
#
DISCID=240e4c14
DTITLE=Various Artist - Country Music Vol. 2
DYEAR=1995
DGENRE=Country
TTITLE0=Dottie West - A Lesson In Leavin
TTITLE1=Freddy Weller - Games People Play
TTITLE2=Tammy Wynette - Stand By Your Man
TTITLE3=Leroy Van Dyke - The Auctioneer
TTITLE4=Barbara Fairchild - Teddy Bear Song
TTITLE5=Porter Wagoner - Satisfied Mind
TTITLE6=Lynn Anderson - Rosegarden
TTITLE7=Nitty Gritty Dirt Band - Mister Bojangles
TTITLE8=Jeanny C. Riley - Harper Valley PTA
TTITLE9=Johnny Russel - Got No Reason Now for Going Home
TTITLE10=Tanya Tucker - What's Your Mama's Name
TTITLE11=Mel Tillis - Ruby Don't Take Your Love To Town
TTITLE12=Patty Loveless - It's What You Don't Do
TTITLE13=Ed Bruce - Mama Don't Let Your Babies Grow Up To Be Cowboys
TTITLE14=Sweethearts Of The Rodeo - Chains Of Gold
TTITLE15=Freddy Fender - Before The Next Teardrop Falls
TTITLE16=Forester Sisters - Dixie Man
TTITLE17=Tom T. Hall - Old Dog Children And Watermelon Wine
TTITLE18=Bellamy Brothers - Redneck Girl
TTITLE19=Bellamy Brothers - Let Your Love Flow
EXTD=YEAR: 1995
EXTT0=
EXTT1=
EXTT2=
EXTT3=
EXTT4=
EXTT5=
EXTT6=
EXTT7=
EXTT8=
EXTT9=
EXTT10=
EXTT11=
EXTT12=
EXTT13=
EXTT14=
EXTT15=
EXTT16=
EXTT17=
EXTT18=
EXTT19=
PLAYORDER=
